HIERARCHY
ROOT Hips
{
	OFFSET 0.000000 0.000000 0.000000
	CHANNELS 6 Xposition Yposition Zposition Zrotation Yrotation Xrotation 
	JOINT LeftUpLeg_virtual
	{
		OFFSET 0.000000 0.000000 0.000000
		CHANNELS 3 Zrotation Yrotation Xrotation
		JOINT LeftUpLeg
		{
			OFFSET 10.205400 -3.823500 0.155100
			CHANNELS 3 Zrotation Yrotation Xrotation
			JOINT LeftLeg
			{
				OFFSET 0.708757 -12.982077 0.567790
				CHANNELS 3 Zrotation Yrotation Xrotation
				JOINT LeftFoot
				{
					OFFSET -0.708756 -10.717838 -2.184338
					CHANNELS 3 Zrotation Yrotation Xrotation
					JOINT LeftToeBase
					{
						OFFSET 0.108149 -7.191104 7.560241
						CHANNELS 3 Zrotation Yrotation Xrotation
						End Site
						{
							OFFSET 0.000000 0.000000 0.000000
						}
					}
				}
			}
		}
	}
	JOINT RightUpLeg_virtual
	{
		OFFSET 0.000000 0.000000 0.000000
		CHANNELS 3 Zrotation Yrotation Xrotation
		JOINT RightUpLeg
		{
			OFFSET -10.205400 -3.823500 0.005500
			CHANNELS 3 Zrotation Yrotation Xrotation
			JOINT RightLeg
			{
				OFFSET -0.708756 -12.982134 0.610632
				CHANNELS 3 Zrotation Yrotation Xrotation
				JOINT RightFoot
				{
					OFFSET 0.708754 -10.717769 -1.945823
					CHANNELS 3 Zrotation Yrotation Xrotation
					JOINT RightToeBase
					{
						OFFSET -0.108140 -7.191069 7.372968
						CHANNELS 3 Zrotation Yrotation Xrotation
						End Site
						{
							OFFSET 0.000000 0.000000 0.000000
						}
					}
				}
			}
		}
	}
	JOINT Spine_virtual
	{
		OFFSET 0.000000 0.000000 0.000000
		CHANNELS 3 Zrotation Yrotation Xrotation
		JOINT Spine
		{
			OFFSET 0.000000 6.876099 0.125700
			CHANNELS 3 Zrotation Yrotation Xrotation
			JOINT Spine1
			{
				OFFSET 0.000000 8.022060 0.146608
				CHANNELS 3 Zrotation Yrotation Xrotation
				JOINT Spine2
				{
					OFFSET 0.000000 9.168068 0.167552
					CHANNELS 3 Zrotation Yrotation Xrotation
					JOINT Neck_virtual
					{
						OFFSET 0.000000 0.000000 0.000000
						CHANNELS 3 Zrotation Yrotation Xrotation
						JOINT Neck
						{
							OFFSET 0.000000 10.314075 0.188496
							CHANNELS 3 Zrotation Yrotation Xrotation
							JOINT Head
							{
								OFFSET 0.000000 7.643700 -2.377400
								CHANNELS 3 Zrotation Yrotation Xrotation
								End Site
								{
									OFFSET 0.000000 0.000000 0.000000
								}
							}
						}
					}
					JOINT LeftShoulder_virtual
					{
						OFFSET 0.000000 0.000000 0.000000
						CHANNELS 3 Zrotation Yrotation Xrotation
						JOINT LeftShoulder
						{
							OFFSET 4.392200 8.824978 0.174984
							CHANNELS 3 Zrotation Yrotation Xrotation
							JOINT LeftArm
							{
								OFFSET 8.771219 -2.981674 -0.026999
								CHANNELS 3 Zrotation Yrotation Xrotation
								JOINT LeftForeArm
								{
									OFFSET 8.512804 0.000000 -0.000000
									CHANNELS 3 Zrotation Yrotation Xrotation
									JOINT LeftHand
									{
										OFFSET 18.484802 0.000000 -0.000000
										CHANNELS 3 Zrotation Yrotation Xrotation
										End Site
										{
											OFFSET 0.000000 0.000000 0.000000
										}
									}
								}
							}
						}
					}
					JOINT RightShoulder_virtual
					{
						OFFSET 0.000000 0.000000 0.000000
						CHANNELS 3 Zrotation Yrotation Xrotation
						JOINT RightShoulder
						{
							OFFSET -4.392200 8.824993 0.141379
							CHANNELS 3 Zrotation Yrotation Xrotation
							JOINT RightArm
							{
								OFFSET -8.771282 -2.981682 -0.094208
								CHANNELS 3 Zrotation Yrotation Xrotation
								JOINT RightForeArm
								{
									OFFSET -8.494598 0.000000 0.000000
									CHANNELS 3 Zrotation Yrotation Xrotation
									JOINT RightHand
									{
										OFFSET -18.483803 0.000000 0.000001
										CHANNELS 3 Zrotation Yrotation Xrotation
										End Site
										{
											OFFSET 0.000000 0.000000 0.000000
										}
									}
								}
							}
						}
					}
				}
			}
		}
	}
}
MOTION
Frames: 8
Frame Time: 0.033333
18.568594 30.242445 41.371834 -179.998803 -39.999128 179.112449 -0.882567 -3.902465 1.201766 -0.226052 29.018086 -54.485136 8.425414 8.609477 42.000404 -10.088038 -0.396911 13.247744 0.000000 0.000000 0.000000 2.756212 -2.351461 2.729347 -2.392221 -19.875535 -26.219056 2.318255 0.609781 64.459965 1.665886 7.033017 -10.291308 0.000000 0.000000 0.000000 1.143239 -2.344045 -4.762185 -1.408521 6.126198 -9.134030 -0.951464 -2.682741 7.431131 -0.002010 -0.004825 -0.056659 -0.926592 -1.067014 9.379721 -5.658617 14.162051 15.648590 0.000000 0.000000 0.000000 0.469563 -0.686174 6.225136 -1.764648 -5.843156 -4.582466 -16.630749 2.068945 -23.366185 -168.110367 -75.459042 -168.696042 0.000000 0.000000 0.000000 -3.265756 0.570025 5.776308 35.407663 19.657136 -2.297306 2.715041 32.264892 2.948658 172.546957 82.189674 172.768460 0.000000 0.000000 0.000000 
18.616787 30.255735 41.309822 -179.937932 -40.632427 178.928444 -0.876606 -4.248735 0.969618 0.168913 28.575964 -53.945913 8.224497 8.473213 41.746656 -9.590088 -0.141568 13.369523 0.000000 0.000000 0.000000 2.798127 -2.780932 2.475575 -2.362517 -19.769595 -25.523317 2.167068 0.465038 64.242847 1.533409 6.866083 -10.453933 0.000000 0.000000 0.000000 1.070526 -2.571798 -4.980187 -1.463399 6.160957 -8.984123 -0.966278 -2.431885 7.382322 -0.027080 -0.009063 -0.112803 -0.933365 -0.883224 9.316329 -5.722641 14.129836 15.812508 0.000000 0.000000 0.000000 0.477635 -0.456328 6.132380 -2.129402 -5.641125 -4.563143 -16.170548 1.021729 -23.459115 -168.495234 -75.262701 -168.438407 0.000000 0.000000 0.000000 -3.205564 0.780086 5.610372 34.628526 19.229677 -2.419418 4.228665 31.997732 3.066315 173.450769 81.707388 173.598014 0.000000 0.000000 0.000000 
18.658688 30.248119 41.267868 -179.802804 -41.143704 178.871904 -0.684161 -4.724378 0.648443 0.639729 28.059752 -53.489001 7.952935 8.357253 41.621472 -8.926954 0.177359 13.550453 0.000000 0.000000 0.000000 2.865361 -3.195346 2.050835 -2.178055 -19.590014 -24.838826 1.932338 0.300812 64.000034 1.193011 6.626168 -10.776176 0.000000 0.000000 0.000000 1.006852 -2.819710 -5.401996 -1.496809 6.168877 -8.763749 -0.963221 -2.178207 7.324788 -0.030090 -0.013636 -0.097627 -0.948707 -0.402805 9.232753 -5.782465 14.047639 15.709266 0.000000 0.000000 0.000000 0.459547 -0.195910 6.095059 -2.429738 -5.294537 -4.530850 -15.634472 -0.320144 -23.655494 -168.684622 -74.968621 -168.310068 0.000000 0.000000 0.000000 -3.231865 1.081068 5.579491 33.683020 18.807243 -2.751092 5.789080 31.555081 2.701340 174.091454 80.907696 174.075608 0.000000 0.000000 0.000000 
18.684439 30.226480 41.248375 -179.885149 -41.544134 179.110865 -0.603906 -5.348539 0.264872 1.162627 27.409438 -53.127428 7.635476 8.286879 41.635679 -8.071462 0.635545 13.763302 0.000000 0.000000 0.000000 2.794875 -3.704933 1.519784 -1.938743 -19.400179 -24.218978 1.749335 0.200806 63.832182 0.771897 6.420304 -11.283572 0.000000 0.000000 0.000000 0.874254 -3.225103 -5.927507 -1.601330 6.253875 -8.592504 -0.982926 -1.861918 7.289836 -0.055500 -0.013968 -0.076845 -0.966642 -0.245929 9.293973 -5.816399 13.930180 15.870658 0.000000 0.000000 0.000000 0.511599 0.116802 6.119950 -2.673085 -5.132208 -4.428010 -14.897850 -1.750953 -24.006558 -168.909048 -74.639187 -168.103933 0.000000 0.000000 0.000000 -3.257464 1.482001 5.448824 32.661070 18.212991 -2.986858 7.303562 30.990412 1.653216 175.034294 79.785250 174.777028 0.000000 0.000000 0.000000 
18.716002 30.199165 41.233009 -179.771440 -41.802916 179.098038 -0.239138 -5.907757 -0.076493 1.610255 26.748667 -52.789545 7.272563 8.381616 41.744238 -6.900209 1.411197 13.960880 0.000000 0.000000 0.000000 2.786299 -4.253419 1.037116 -1.717966 -19.089166 -23.619392 1.647343 0.364567 63.655485 0.265061 6.227990 -11.758008 0.000000 0.000000 0.000000 0.800203 -3.478682 -6.322606 -1.667830 6.226977 -8.277596 -0.981730 -1.635973 7.299056 -0.033945 -0.037257 -0.048634 -0.978748 0.104854 9.292973 -5.839024 13.882811 15.770021 0.000000 0.000000 0.000000 0.522440 0.428367 6.152512 -2.828109 -4.852932 -4.318080 -14.181027 -3.450828 -24.491660 -169.076005 -74.168833 -167.921321 0.000000 0.000000 0.000000 -3.346728 1.730624 5.477640 31.410496 17.738679 -3.484931 8.801407 30.559151 0.273640 175.864162 78.314751 175.308143 0.000000 0.000000 0.000000 
18.753759 30.179554 41.229649 -179.718068 -42.042710 179.016403 -0.067060 -6.292754 -0.326102 2.019503 26.205378 -52.583567 7.026226 8.416386 41.816013 -5.943016 2.082658 14.613596 0.000000 0.000000 0.000000 2.789148 -4.800229 0.673398 -1.488417 -18.879662 -23.146738 1.750622 0.800341 63.460367 -0.319226 6.011032 -12.106619 0.000000 0.000000 0.000000 0.766853 -3.792537 -6.504343 -1.811876 6.297353 -7.984035 -1.050811 -1.363582 7.340333 -0.061287 -0.002793 -0.066475 -1.004930 0.295146 9.320306 -5.880454 13.814383 15.749532 0.000000 0.000000 0.000000 0.531722 0.594660 6.185134 -2.830573 -4.537320 -4.254158 -13.372882 -5.140571 -25.160197 -168.944128 -73.680085 -167.980047 0.000000 0.000000 0.000000 -3.377774 1.912632 5.392580 30.196369 17.116866 -3.827396 10.200297 30.193732 -1.372086 176.644333 76.615188 175.764987 0.000000 0.000000 0.000000 
18.819281 30.167431 41.240776 -179.934326 -42.392426 179.530389 -0.136103 -6.743115 -0.539947 2.469984 25.693059 -52.585661 6.702249 8.425076 41.583127 -5.447493 2.487591 15.312623 0.000000 0.000000 0.000000 2.658199 -5.053355 0.331044 -1.212209 -18.848085 -23.085413 1.889799 0.922810 63.233386 -0.855642 5.981962 -12.644681 0.000000 0.000000 0.000000 0.575688 -3.970484 -6.788151 -2.071956 6.276068 -7.871124 -1.131359 -1.213033 7.342776 -0.033675 -0.019940 -0.021672 -1.080166 0.456250 9.515173 -5.988215 13.802823 15.565714 0.000000 0.000000 0.000000 0.507092 0.703175 6.356565 -2.773708 -4.150652 -4.135448 -12.735084 -6.526263 -26.152690 -169.053985 -73.163279 -167.777245 0.000000 0.000000 0.000000 -3.459827 2.174253 5.445118 29.053483 16.439328 -4.218546 11.564437 29.978622 -2.970907 177.068829 74.849120 175.861552 0.000000 0.000000 0.000000 
18.914515 30.164202 41.276886 -179.830111 -42.780313 179.400369 -0.188835 -6.851755 -0.515543 3.058297 25.356364 -52.499928 6.099233 8.513266 41.140336 -5.469207 2.674000 15.788076 0.000000 0.000000 0.000000 2.746946 -5.161812 0.350683 -0.972256 -18.899393 -23.013404 2.028788 1.086409 62.987362 -1.352167 5.998720 -13.030870 0.000000 0.000000 0.000000 0.536913 -3.990281 -6.576898 -2.275842 6.249662 -7.666970 -1.210414 -1.133855 7.434486 -0.021918 -0.034277 -0.007336 -1.220686 0.600326 9.617012 -6.091695 13.866607 15.397994 0.000000 0.000000 0.000000 0.417304 0.783548 6.382452 -2.673096 -3.623339 -3.875993 -12.302879 -7.671816 -27.410594 -169.519708 -72.679565 -167.186679 0.000000 0.000000 0.000000 -3.607743 2.218095 5.554842 27.964295 16.022960 -4.691428 12.936268 29.946449 -4.044821 177.211403 73.213098 175.722872 0.000000 0.000000 0.000000 
